<svg width="1716" height="1716" xmlns="http://www.w3.org/2000/svg" xmlns:xlink="http://www.w3.org/1999/xlink" xml:space="preserve" overflow="hidden" fill="#f0f0f0"><defs><clipPath id="clip0"><rect x="1342" y="380" width="1716" height="1716"/></clipPath></defs><g clip-path="url(#clip0)" transform="translate(-1342 -380)"><path d="M2556.16 921.718C2536.19 921.718 2518.85 929.038 2504.13 943.679L2071.72 1376.09 1896.37 1199.76C1881.73 1184.91 1864.37 1177.49 1844.29 1177.49 1824.21 1177.49 1806.83 1184.91 1792.17 1199.76 1777.71 1214.39 1770.32 1231.72 1769.99 1251.74 1769.66 1271.76 1776.82 1289.08 1791.46 1303.69L2020.4 1532.32C2035.04 1546.96 2052.19 1554.28 2071.84 1554.28 2091.49 1554.28 2108.56 1546.96 2123.04 1532.32L2608.07 1047.61C2622.7 1032.97 2630.02 1015.56 2630.02 995.372 2630.02 975.181 2622.7 957.859 2608.07 943.407 2593.43 928.948 2576.13 921.718 2556.16 921.718ZM2200 380C2673.86 380 3058 764.139 3058 1238 3058 1711.86 2673.86 2096 2200 2096 1726.14 2096 1342 1711.86 1342 1238 1342 764.139 1726.14 380 2200 380Z" fill-rule="evenodd"/></g></svg>