<svg width="524" height="116" viewBox="0 0 524 116" fill="none" xmlns="http://www.w3.org/2000/svg">
<path d="M136.905 0.00390625V20.1773H130.485L112.188 114.047H82.0127L68.2097 53.3649L53.7645 114.047H23.4294L6.41609 20.1773H-0.00408936V0.00390625H45.8997V20.1773H37.7141L46.2208 78.419L64.3576 0.00390625H84.7414L101.274 78.419L111.385 20.1773H102.718V0.00390625H136.905Z" fill="black"/>
<path d="M168.284 34.3303C179.306 34.3303 187.705 37.7467 193.483 44.5796C199.368 51.304 202.311 61.5533 202.311 75.3274C202.311 102.442 190.969 116 168.284 116C145.6 116 134.258 102.442 134.258 75.3274C134.258 61.6615 137.2 51.4122 143.085 44.5796C148.97 37.7467 157.37 34.3303 168.284 34.3303ZM161.864 91.922C162.827 95.1757 164.967 96.8026 168.284 96.8026C171.602 96.8026 173.688 95.1757 174.544 91.922C175.507 88.5598 175.989 82.92 175.989 75.0027C175.989 66.868 175.454 61.2823 174.384 58.2456C173.421 55.1003 171.387 53.5276 168.284 53.5276C165.181 53.5276 163.095 55.1003 162.025 58.2456C160.955 61.3909 160.42 66.9766 160.42 75.0027C160.42 82.9204 160.901 88.5601 161.864 91.922Z" fill="black"/>
<path d="M263.225 35.1446V58.4088C254.986 58.0834 249.315 59.4392 246.211 62.476C243.108 65.5129 241.557 71.3152 241.557 79.8831V95.9892H250.063V114.047H209.135V95.9892H215.876V54.3413H209.135V36.2832H240.112L239.951 48.8097C242.199 44.5798 245.195 41.2719 248.94 38.8857C252.685 36.3912 256.858 35.1439 261.459 35.1439L263.225 35.1446Z" fill="black"/>
<path d="M340.828 95.9893V114.047H308.406V105.262C307.336 108.082 305.143 110.523 301.825 112.583C298.615 114.644 295.084 115.674 291.232 115.674C287.594 115.674 284.438 115.078 281.763 113.885C279.088 112.692 276.626 110.631 274.379 107.702C272.239 104.666 270.581 100.327 269.404 94.6872C268.227 89.0473 267.638 82.1059 267.638 73.8627C267.638 59.0043 269.725 48.755 273.898 43.1149C278.178 37.475 283.956 34.6551 291.232 34.6551C299.044 34.6551 304.768 38.18 308.406 45.2298V18.0615H300.702V0.00341797H334.247V95.9888L340.828 95.9893ZM301.505 96.1519C304.822 96.1519 306.909 94.6335 307.765 91.5967C308.728 88.4514 309.209 83.0286 309.209 75.3284C309.209 67.4107 308.674 61.9879 307.604 59.0601C306.641 56.0232 304.662 54.5048 301.666 54.5048C298.563 54.5048 296.476 56.0232 295.406 59.0601C294.443 61.9884 293.961 67.4112 293.961 75.3284C293.961 78.0398 293.961 80.1547 293.961 81.6731C294.068 83.0831 294.175 84.7642 294.282 86.7165C294.389 88.5603 294.603 89.9703 294.925 90.9464C295.246 91.8141 295.674 92.736 296.209 93.7121C296.744 94.5798 297.439 95.2305 298.295 95.6643C299.258 95.9897 300.328 96.1519 301.505 96.1519Z" fill="black"/>
<path d="M386.972 95.9893V114.047H347.809V95.9893H354.39V18.062H347.167V0.00390625H380.23V95.9893H386.972Z" fill="black"/>
<path d="M400.856 44.2546C407.276 37.6387 415.462 34.3307 425.413 34.3307C435.363 34.3307 443.282 37.6387 449.167 44.2546C455.052 50.8706 457.994 61.3369 457.994 75.6535C457.994 77.3888 457.887 79.558 457.673 82.1611H417.547C417.547 88.2347 418.243 92.5187 419.634 95.0131C421.025 97.3991 423.325 98.5921 426.535 98.5921C431.243 98.5921 434.293 95.718 435.684 89.9697H457.512C453.446 107.323 443.067 115.999 426.375 115.999C414.926 115.999 406.205 112.962 400.213 106.889C394.327 100.815 391.385 90.2402 391.385 75.1643C391.385 61.065 394.541 50.7617 400.855 44.2542L400.856 44.2546ZM417.388 70.2841H433.278V68.1692C433.278 62.8548 432.743 58.8959 431.673 56.2927C430.603 53.5812 428.516 52.2255 425.413 52.2255C424.129 52.2255 423.006 52.4424 422.043 52.8762C421.187 53.2016 420.438 53.8523 419.796 54.8285C419.261 55.8046 418.833 56.7265 418.512 57.5942C418.191 58.3534 417.923 59.6548 417.709 61.4986C417.602 63.2339 417.495 64.5897 417.388 65.5659C417.388 66.4336 417.388 68.0065 417.388 70.2841Z" fill="black"/>
<path d="M523.09 37.0007V60.2649C514.851 59.9395 509.18 61.2952 506.077 64.3321C502.974 67.369 501.422 73.1713 501.422 81.7392V97.8452H509.929V115.903H469V97.8452H475.741V56.1974H469V38.1393H499.977L499.817 50.6658C502.064 46.4359 505.06 43.1279 508.805 40.7418C512.55 38.2473 516.723 37 521.324 37L523.09 37.0007Z" fill="black"/>
</svg>
